<?xml version="1.0" encoding="utf-8"?>
<!-- Generator: Adobe Illustrator 24.2.3, SVG Export Plug-In . SVG Version: 6.00 Build 0)  -->
<svg version="1.1" xmlns="http://www.w3.org/2000/svg" xmlns:xlink="http://www.w3.org/1999/xlink" x="0px" y="0px"
	 viewBox="0 0 611.67 792.49" style="enable-background:new 0 0 611.67 792.49;" xml:space="preserve">
<style type="text/css">
	.st0{fill:none;stroke:#000000;stroke-width:0.5;stroke-linecap:round;stroke-linejoin:round;}
	.st1{fill:#FFFFFF;stroke:#010101;stroke-width:0.5;}
	.st2{fill:#FFFFFF;stroke:#000000;stroke-width:0.5;}
	.st3{display:none;}
	.st4{display:inline;}
	.st5{font-family:'ArialMT';}
	.st6{font-size:5.7177px;}
	.st7{font-size:5.7176px;}
	.st8{font-size:5.7178px;}
	.st9{fill:none;stroke:#BA141A;stroke-linecap:round;stroke-linejoin:round;}
	.st10{opacity:0.25;}
	.st11{fill:none;stroke:#000000;stroke-linecap:round;stroke-linejoin:round;}
</style>
<g id="Layer_5">
	<polygon class="st0" points="78.73,710.24 78.73,782.31 144.36,782.31 144.36,710.4 128.32,710.4 128.32,728.63 90.71,728.63 
		90.71,710.24 79.42,710.24 	"/>
	<g id="LINE_874_">
		<line class="st0" x1="121.19" y1="711.41" x2="124.42" y2="711.41"/>
	</g>
	<g id="LINE_873_">
		<line class="st0" x1="114.72" y1="711.41" x2="117.95" y2="711.41"/>
	</g>
	<g id="LINE_872_">
		<line class="st0" x1="108.26" y1="711.41" x2="111.49" y2="711.41"/>
	</g>
	<g id="LINE_871_">
		<line class="st0" x1="105.02" y1="711.41" x2="101.79" y2="711.41"/>
	</g>
	<g id="LINE_870_">
		<line class="st0" x1="95.32" y1="711.41" x2="98.56" y2="711.41"/>
	</g>
	<g id="LINE_681_">
		<path class="st0" d="M94.35,710.51"/>
	</g>
	<g id="LINE_885_">
		<line class="st0" x1="78.75" y1="755.2" x2="14.05" y2="755.2"/>
	</g>
	<line class="st0" x1="18.68" y1="661.75" x2="13.5" y2="661.75"/>
	<line class="st0" x1="18.69" y1="651.62" x2="13.5" y2="651.62"/>
	<g id="LINE_1264_">
		<path class="st0" d="M177.27,108.59"/>
	</g>
	<line class="st0" x1="18.65" y1="381.17" x2="13.46" y2="381.17"/>
	<line class="st0" x1="18.61" y1="390.84" x2="13.42" y2="390.84"/>
	<line class="st0" x1="353.28" y1="113.78" x2="353.28" y2="108.69"/>
	<line class="st0" x1="362.5" y1="113.78" x2="362.5" y2="108.69"/>
	<line class="st0" x1="372.17" y1="113.78" x2="372.17" y2="108.69"/>
	<line class="st0" x1="398.17" y1="113.78" x2="398.17" y2="108.69"/>
	<line class="st0" x1="407.23" y1="113.78" x2="407.23" y2="108.69"/>
	<line class="st0" x1="416.7" y1="113.78" x2="416.7" y2="108.69"/>
	<g id="INSERT_62_">
		<g id="CIRCLE_24_">
			<path class="st0" d="M572.53,153.6c0-2.13-1.72-3.85-3.85-3.85c-2.13,0-3.85,1.73-3.85,3.85c0,2.13,1.72,3.85,3.85,3.85
				C570.81,157.45,572.53,155.73,572.53,153.6L572.53,153.6L572.53,153.6z"/>
		</g>
		<g id="CIRCLE_23_">
			<path class="st0" d="M564.3,164.2c0-2.13-1.72-3.85-3.85-3.85c-2.13,0-3.85,1.73-3.85,3.85c0,2.13,1.73,3.85,3.85,3.85
				C562.57,168.06,564.3,166.33,564.3,164.2L564.3,164.2L564.3,164.2z"/>
		</g>
		<g id="LINE_1296_">
			<polyline class="st0" points="560.11,160.36 559.38,158.94 565.62,155.5 567.58,157.04 565.77,163.92 564.21,163.56 			"/>
		</g>
	</g>
	<g id="INSERT_61_">
		<g id="CIRCLE_22_">
			<path class="st0" d="M550.52,126.11c0-2.13-1.73-3.85-3.85-3.85c-2.13,0-3.85,1.73-3.85,3.85c0,2.13,1.72,3.85,3.85,3.85
				C548.8,129.97,550.52,128.24,550.52,126.11L550.52,126.11L550.52,126.11z"/>
		</g>
		<g id="CIRCLE_21_">
			<path class="st0" d="M538.78,132.62c0-2.13-1.73-3.85-3.85-3.85c-2.13,0-3.85,1.73-3.85,3.85c0,2.13,1.72,3.85,3.85,3.85
				C537.05,136.47,538.78,134.75,538.78,132.62L538.78,132.62L538.78,132.62z"/>
		</g>
		<g id="LINE_1292_">
			<polyline class="st0" points="536.13,128.96 536.02,127.36 543.1,126.66 544.31,128.84 539.93,134.45 538.64,133.51 			"/>
		</g>
	</g>
	<g id="INSERT_60_">
		<g id="CIRCLE_20_">
			<path class="st0" d="M542.49,112c0.66-2.02-0.45-4.2-2.47-4.86c-2.02-0.66-4.2,0.44-4.86,2.47c-0.66,2.02,0.45,4.2,2.47,4.86
				C539.65,115.13,541.83,114.02,542.49,112L542.49,112L542.49,112z"/>
		</g>
		<g id="CIRCLE_19_">
			<path class="st0" d="M529.3,114.54c0.66-2.02-0.44-4.2-2.47-4.86c-2.02-0.66-4.2,0.45-4.86,2.47c-0.66,2.02,0.45,4.2,2.47,4.86
				C526.47,117.67,528.64,116.56,529.3,114.54L529.3,114.54L529.3,114.54z"/>
		</g>
		<g id="LINE_1288_">
			<polyline class="st0" points="527.92,110.23 528.31,108.68 535.27,110.21 535.73,112.66 529.83,116.64 528.89,115.34 			"/>
		</g>
	</g>
	<g id="INSERT_59_">
		<g id="CIRCLE_18_">
			<path class="st0" d="M559.65,140.42c0-2.13-1.72-3.85-3.85-3.85c-2.13,0-3.85,1.72-3.85,3.85c0,2.13,1.73,3.85,3.85,3.85
				C557.92,144.28,559.65,142.55,559.65,140.42L559.65,140.42L559.65,140.42z"/>
		</g>
		<g id="CIRCLE_17_">
			<path class="st0" d="M549.79,149.54c0-2.13-1.73-3.85-3.85-3.85c-2.13,0-3.85,1.73-3.85,3.85c0,2.13,1.72,3.85,3.85,3.85
				C548.07,153.4,549.79,151.67,549.79,149.54L549.79,149.54L549.79,149.54z"/>
		</g>
		<g id="LINE_1283_">
			<polyline class="st0" points="546.23,145.7 545.75,144.18 552.46,141.8 554.15,143.63 551.23,150.13 549.76,149.52 			"/>
		</g>
	</g>
	<g id="INSERT_54_">
		<g id="CIRCLE_16_">
			<path class="st0" d="M586.85,163.74c0-2.13-1.73-3.85-3.85-3.85c-2.13,0-3.85,1.72-3.85,3.85c0,2.13,1.72,3.85,3.85,3.85
				C585.13,167.6,586.85,165.87,586.85,163.74L586.85,163.74L586.85,163.74z"/>
		</g>
		<g id="CIRCLE_15_">
			<path class="st0" d="M581.08,175.86c0-2.13-1.73-3.85-3.85-3.85c-2.13,0-3.85,1.73-3.85,3.85c0,2.13,1.72,3.85,3.85,3.85
				C579.36,179.72,581.08,177.99,581.08,175.86L581.08,175.86L581.08,175.86z"/>
		</g>
		<g id="LINE_1279_">
			<polyline class="st0" points="576.08,172.19 575.06,170.95 580.42,166.26 582.67,167.33 582.37,174.45 580.77,174.43 			"/>
		</g>
	</g>
	<g id="INSERT_53_">
		<g id="CIRCLE_2_">
			<path class="st0" d="M602.92,170.94c0-2.13-1.72-3.85-3.85-3.85c-2.13,0-3.85,1.72-3.85,3.85c0,2.13,1.73,3.85,3.85,3.85
				C601.19,174.79,602.92,173.06,602.92,170.94L602.92,170.94L602.92,170.94z"/>
		</g>
		<g id="CIRCLE_1_">
			<path class="st0" d="M599.84,184c0-2.13-1.72-3.85-3.85-3.85c-2.13,0-3.85,1.72-3.85,3.85c0,2.13,1.72,3.85,3.85,3.85
				C598.11,187.86,599.84,186.13,599.84,184L599.84,184L599.84,184z"/>
		</g>
		<g id="LINE_1275_">
			<polyline class="st0" points="594.08,180.65 592.83,179.66 597.07,173.94 599.49,174.52 600.71,181.53 599.14,181.86 			"/>
		</g>
	</g>
	<g id="LINE_1318_">
		<polyline class="st0" points="595.98,187.86 595.81,686.82 402.25,687.05 402.25,729.31 355.73,781.94 		"/>
	</g>
	<polygon class="st0" points="208.99,710.49 208.99,783.07 225.6,783.07 225.6,754.62 264.69,754.62 264.69,783.2 311.92,783.2 
		337.69,749.31 337.69,710.34 303.59,710.34 303.59,728.83 242.5,728.83 242.5,710.34 	"/>
	<line class="st0" x1="237.38" y1="783.2" x2="253.76" y2="783.2"/>
	<line class="st0" x1="245.57" y1="783.2" x2="245.57" y2="754.62"/>
	<g id="LINE_5_">
		<line class="st0" x1="271.54" y1="711.41" x2="274.78" y2="711.41"/>
	</g>
	<g id="LINE_4_">
		<line class="st0" x1="265.08" y1="711.41" x2="268.31" y2="711.41"/>
	</g>
	<g id="LINE_3_">
		<line class="st0" x1="258.62" y1="711.41" x2="261.85" y2="711.41"/>
	</g>
	<g id="LINE_2_">
		<line class="st0" x1="255.38" y1="711.41" x2="252.15" y2="711.41"/>
	</g>
	<g id="LINE_1_">
		<line class="st0" x1="245.68" y1="711.41" x2="248.92" y2="711.41"/>
	</g>
	<g id="LINE_20_">
		<line class="st0" x1="297.34" y1="711.41" x2="300.58" y2="711.41"/>
	</g>
	<g id="LINE_19_">
		<line class="st0" x1="290.88" y1="711.41" x2="294.11" y2="711.41"/>
	</g>
	<g id="LINE_18_">
		<line class="st0" x1="284.41" y1="711.41" x2="287.64" y2="711.41"/>
	</g>
	<g id="LINE_17_">
		<line class="st0" x1="281.18" y1="711.41" x2="277.94" y2="711.41"/>
	</g>
	<g id="POLYLINE_324_">
		<polyline class="st0" points="261.86,108.69 335.46,108.69 335.46,127.99 261.86,127.99 261.86,108.69 		"/>
	</g>
	<path class="st0" d="M13.85,776.8V671.81h4.83c-0.06-2.8-2.37-5.07-5.17-5.07v0.07c2.8,0,5.12-2.26,5.17-5.07v-0.05
		c-0.06-2.8-2.37-5.07-5.17-5.07v0.07c2.8,0,5.12-2.26,5.17-5.07v-0.05c-0.06-2.8-2.37-5.07-5.17-5.07v0.08
		c2.8,0,5.12-2.26,5.17-5.07h-5.17l-0.09-241.02l5.27-0.09c-0.06-2.8-2.37-5.07-5.17-5.07v0.08c2.8,0,5.12-1.9,5.17-4.7l0,0
		c-0.06-2.8-2.37-4.71-5.17-4.7v0.07c2.8,0,5.12-1.96,5.17-4.76l0,0c-0.06-2.8-2.37-4.65-5.17-4.65v0.07c2.8,0,5.12-2.26,5.17-5.07
		h-5.82v-12.82v-86.49l120.63-145.48l17.07,12.9l26.71-31.23h166.66l0.05,0.1v5.1c2.76-0.06,5-2.33,5-5.09l-0.07,0
		c0,2.76,1.7,5.04,4.46,5.1l0,0c2.76-0.05,4.4-2.33,4.4-5.09h-0.07c0,2.76,2,5.04,4.76,5.1l0,0c2.76-0.06,4.82-2.33,4.82-5.09h-0.07
		c0,2.76,2.03,5.04,4.79,5.1l0,0c2.76-0.05,4.8-2.33,4.8-5.09l-0.07,0c0,2.76,2.23,5.04,4.99,5.1v-4.87h6.92v4.87
		c2.76-0.06,4.99-2.33,5-5.09h-0.07c0,2.76,1.82,5.04,4.58,5.09l0,0c2.76-0.05,4.63-2.33,4.63-5.09h-0.07c0,2.76,1.83,5.04,4.59,5.1
		h0.02c2.76-0.05,4.61-2.33,4.61-5.1h-0.08c0,2.76,2.05,5.04,4.81,5.1l0,0c2.76-0.06,4.78-2.33,4.78-5.09h-0.07
		c0,2.76,2.23,5.04,4.99,5.1v-5.1l0.14-0.06l101.44,0.01"/>
</g>
<g id="Booths">
	<rect x="219.13" y="608.38" class="st1" width="78.47" height="62.58"/>
	<rect x="313.71" y="608.34" class="st1" width="47.14" height="62.67"/>
	<rect x="376.2" y="608.34" class="st1" width="47.14" height="62.67"/>
	<rect x="62.66" y="452.68" class="st1" width="47.5" height="31.09"/>
	<rect x="172.92" y="389.94" class="st1" width="31.26" height="31.05"/>
	<rect x="172.6" y="561.38" class="st1" width="31.26" height="31.05"/>
	<rect x="172.6" y="608.53" class="st1" width="31.26" height="46.81"/>
	<rect x="219.42" y="561.38" class="st1" width="31.26" height="31.05"/>
	<rect x="266.42" y="561.38" class="st1" width="31.26" height="31.05"/>
	<rect x="313.71" y="561.38" class="st1" width="31.26" height="31.05"/>
	<rect x="32.08" y="499.26" class="st1" width="125.19" height="171.95"/>
	<rect x="173.04" y="437.08" class="st1" width="31.26" height="31.05"/>
	<rect x="125.86" y="389.94" class="st1" width="31.26" height="31.05"/>
	<rect x="125.97" y="437.08" class="st1" width="31.26" height="31.05"/>
	<rect x="454.02" y="436.42" class="st1" width="15.56" height="31.26"/>
	<rect x="438.6" y="436.42" class="st1" width="15.56" height="31.26"/>
	<rect x="172.8" y="483.45" class="st1" width="31.26" height="62.02"/>
	<rect x="219.26" y="483.56" class="st1" width="31.26" height="62.02"/>
	<rect x="266.37" y="483.56" class="st1" width="31.33" height="62.02"/>
	<rect x="313.55" y="483.56" class="st1" width="31.05" height="62.02"/>
	<rect x="125.78" y="343.11" class="st1" width="31.33" height="31.12"/>
	<rect x="249.93" y="343.11" class="st1" width="31.33" height="31.12"/>
	<rect x="249.93" y="295.91" class="st1" width="31.33" height="31.12"/>
	<rect x="298.13" y="343.11" class="st1" width="46.8" height="31.12"/>
	<rect x="298.13" y="390" class="st1" width="46.8" height="31.12"/>
	<rect x="298.13" y="436.63" class="st1" width="46.8" height="31.12"/>
	<rect x="360.78" y="390" class="st1" width="62.2" height="31.12"/>
	<rect x="360.78" y="436.63" class="st1" width="62.2" height="31.12"/>
	<rect x="360.78" y="530.08" class="st1" width="62.2" height="15.5"/>
	<rect x="360.78" y="483.56" class="st1" width="62.2" height="30.9"/>
	<rect x="360.78" y="561.84" class="st1" width="62.2" height="30.9"/>
	<rect x="298.13" y="295.91" class="st1" width="46.8" height="31.12"/>
	<rect x="125.78" y="296.01" class="st1" width="15.63" height="31.23"/>
	<rect x="141.45" y="296.01" class="st1" width="15.63" height="31.23"/>
	<rect x="125.68" y="233.44" class="st1" width="15.63" height="15.63"/>
	<rect x="125.68" y="217.88" class="st1" width="15.63" height="15.63"/>
	<rect x="141.34" y="233.44" class="st1" width="15.63" height="15.63"/>
	<rect x="141.34" y="217.88" class="st1" width="15.63" height="15.63"/>
	<rect x="125.68" y="249.06" class="st1" width="15.63" height="31.06"/>
	
		<rect x="89.79" y="165.42" transform="matrix(0.6428 -0.7661 0.7661 0.6428 -95.0551 142.6259)" class="st1" width="31.23" height="15.63"/>
	
		<rect x="112.55" y="147.48" transform="matrix(0.6428 -0.766 0.766 0.6428 -75.9677 147.674)" class="st1" width="15.63" height="15.63"/>
	
		<rect x="52.57" y="219.24" transform="matrix(0.6428 -0.766 0.766 0.6428 -152.3617 127.3635)" class="st1" width="15.63" height="15.63"/>
	
		<rect x="59.91" y="201.16" transform="matrix(0.6428 -0.766 0.766 0.6428 -133.1063 132.5018)" class="st1" width="31.23" height="15.63"/>
	<rect x="141.35" y="249.06" class="st1" width="15.63" height="31.06"/>
	<rect x="266.24" y="233.44" class="st1" width="15.63" height="15.63"/>
	<rect x="266.24" y="217.88" class="st1" width="15.63" height="15.63"/>
	<rect x="266.24" y="202.19" class="st1" width="15.63" height="15.63"/>
	<rect x="281.95" y="217.88" class="st1" width="15.63" height="15.63"/>
	<rect x="281.95" y="202.19" class="st1" width="15.63" height="15.63"/>
	<rect x="235.52" y="217.88" class="st1" width="15.63" height="15.63"/>
	<rect x="235.52" y="202.19" class="st1" width="15.63" height="15.63"/>
	<rect x="219.8" y="217.88" class="st1" width="15.63" height="15.63"/>
	<rect x="219.8" y="202.19" class="st1" width="15.63" height="15.63"/>
	<rect x="219.8" y="186.67" class="st1" width="15.63" height="15.63"/>
	<rect x="219.8" y="170.98" class="st1" width="15.63" height="15.63"/>
	<rect x="281.91" y="233.44" class="st1" width="15.63" height="15.63"/>
	<rect x="266.24" y="186.61" class="st1" width="15.63" height="15.63"/>
	<rect x="266.24" y="171.06" class="st1" width="15.63" height="15.63"/>
	<rect x="266.24" y="155.36" class="st1" width="15.63" height="15.63"/>
	<rect x="281.95" y="171.06" class="st1" width="15.63" height="15.63"/>
	<rect x="281.95" y="155.36" class="st1" width="15.63" height="15.63"/>
	<rect x="281.91" y="186.61" class="st1" width="15.63" height="15.63"/>
	<rect x="313.52" y="202.19" class="st1" width="15.63" height="15.63"/>
	<rect x="329.23" y="202.19" class="st1" width="15.63" height="15.63"/>
	<rect x="313.52" y="186.61" class="st1" width="15.63" height="15.63"/>
	<rect x="313.52" y="171.06" class="st1" width="15.63" height="15.63"/>
	<rect x="313.52" y="155.36" class="st1" width="15.63" height="15.63"/>
	<rect x="329.19" y="186.61" class="st1" width="15.63" height="15.63"/>
	<rect x="313.56" y="217.88" class="st1" width="15.63" height="31.33"/>
	<rect x="329.23" y="233.44" class="st1" width="15.63" height="15.63"/>
	<rect x="329.23" y="217.88" class="st1" width="15.63" height="15.63"/>
	<rect x="329.23" y="170.94" class="st1" width="15.63" height="15.63"/>
	<rect x="329.23" y="155.39" class="st1" width="15.63" height="15.63"/>
	<rect x="360.61" y="202.19" class="st1" width="15.63" height="15.63"/>
	<rect x="376.32" y="202.19" class="st1" width="15.63" height="15.63"/>
	<rect x="360.61" y="186.61" class="st1" width="15.63" height="15.63"/>
	<rect x="360.61" y="171.06" class="st1" width="15.63" height="15.63"/>
	<rect x="360.61" y="155.36" class="st1" width="15.63" height="15.63"/>
	<rect x="376.28" y="186.61" class="st1" width="15.63" height="15.63"/>
	<rect x="376.32" y="170.94" class="st1" width="15.63" height="15.63"/>
	<rect x="376.32" y="155.39" class="st1" width="15.63" height="15.63"/>
	<rect x="454.23" y="233.44" class="st1" width="15.52" height="15.63"/>
	<rect x="469.79" y="233.44" class="st1" width="15.52" height="15.63"/>
	<rect x="407.36" y="233.44" class="st1" width="15.63" height="15.63"/>
	<rect x="407.36" y="217.88" class="st1" width="15.63" height="15.63"/>
	<rect x="407.36" y="186.64" class="st1" width="15.63" height="15.63"/>
	<rect x="407.36" y="170.94" class="st1" width="15.63" height="15.63"/>
	<rect x="407.36" y="155.39" class="st1" width="15.63" height="15.63"/>
	<rect x="423.03" y="249.17" class="st1" width="15.63" height="15.53"/>
	<rect x="469.79" y="249.17" class="st1" width="15.52" height="15.53"/>
	<rect x="360.68" y="218" class="st1" width="15.67" height="15.63"/>
	<rect x="360.68" y="233.51" class="st1" width="15.67" height="15.63"/>
	<rect x="376.28" y="218" class="st1" width="15.67" height="15.63"/>
	<rect x="376.28" y="233.51" class="st1" width="15.67" height="15.63"/>
	<rect x="329.29" y="249.17" class="st1" width="15.63" height="31"/>
	<rect x="313.63" y="249.17" class="st1" width="15.63" height="31"/>
	<rect x="376.37" y="249.17" class="st1" width="15.63" height="31"/>
	<rect x="360.72" y="249.17" class="st1" width="15.63" height="31"/>
	<rect x="266.28" y="264.6" class="st1" width="15.67" height="15.61"/>
	<rect x="281.95" y="249.21" class="st1" width="15.63" height="30.96"/>
	<rect x="219.81" y="249.13" class="st1" width="15.54" height="31.25"/>
	<rect x="235.36" y="249.05" class="st1" width="15.63" height="31.3"/>
	<rect x="423.03" y="233.55" class="st1" width="15.63" height="15.67"/>
	<rect x="407.33" y="264.72" class="st1" width="15.63" height="15.53"/>
	<rect x="407.33" y="249.1" class="st1" width="15.63" height="15.67"/>
	<rect x="423.03" y="186.64" class="st1" width="15.63" height="15.63"/>
	<rect x="407.36" y="202.24" class="st1" width="15.63" height="15.63"/>
	<rect x="423.03" y="217.88" class="st1" width="15.63" height="15.63"/>
	<rect x="423.03" y="202.24" class="st1" width="15.63" height="15.63"/>
	<rect x="423.03" y="170.94" class="st1" width="15.63" height="15.63"/>
	<rect x="423.03" y="155.39" class="st1" width="15.63" height="15.63"/>
	<rect x="172.88" y="342.86" class="st1" width="15.63" height="31.36"/>
	<rect x="188.51" y="342.86" class="st1" width="15.63" height="31.36"/>
	<rect x="172.88" y="327.31" class="st1" width="15.63" height="15.63"/>
	<rect x="62.66" y="405.96" class="st1" width="47.5" height="31.09"/>
	<rect x="62.66" y="359.12" class="st1" width="47.5" height="31.09"/>
	<rect x="188.51" y="327.31" class="st1" width="15.63" height="15.63"/>
	<rect x="172.88" y="311.61" class="st1" width="15.63" height="15.63"/>
	<rect x="188.55" y="311.61" class="st1" width="15.63" height="15.63"/>
	<rect x="172.88" y="296.01" class="st1" width="15.63" height="15.63"/>
	<rect x="188.55" y="296.01" class="st1" width="15.63" height="15.63"/>
	<rect x="533.18" y="437.03" class="st1" width="31.34" height="31.19"/>
	<rect x="454.31" y="296" class="st1" width="31.14" height="31.11"/>
	<rect x="500.48" y="202.27" class="st1" width="31.14" height="31.11"/>
	<rect x="531.75" y="202.27" class="st1" width="31.14" height="31.11"/>
	<rect x="501.24" y="296" class="st1" width="15.8" height="31.11"/>
	<rect x="501.24" y="342.94" class="st1" width="15.8" height="31.11"/>
	<rect x="454.31" y="343.28" class="st1" width="31.14" height="31.11"/>
	<rect x="438.61" y="389.6" class="st1" width="31.14" height="31.11"/>
	<rect x="485.94" y="389.6" class="st1" width="31.14" height="31.11"/>
	<rect x="485.94" y="436.5" class="st1" width="15.93" height="31.11"/>
	<rect x="501.76" y="436.5" class="st1" width="15.93" height="31.11"/>
	<rect x="533.18" y="390.05" class="st1" width="31.14" height="31.11"/>
	<rect x="172.79" y="233.44" class="st1" width="15.63" height="15.63"/>
	<rect x="172.79" y="186.64" class="st1" width="15.63" height="15.63"/>
	<rect x="172.79" y="170.94" class="st1" width="15.63" height="15.63"/>
	<rect x="188.46" y="233.44" class="st1" width="15.63" height="15.63"/>
	<rect x="172.79" y="248.95" class="st1" width="15.63" height="15.63"/>
	<rect x="188.46" y="248.95" class="st1" width="15.63" height="15.63"/>
	<rect x="266.32" y="249.12" class="st1" width="15.63" height="15.46"/>
	<rect x="219.78" y="233.44" class="st1" width="15.63" height="15.63"/>
	<rect x="235.45" y="233.44" class="st1" width="15.63" height="15.63"/>
	<rect x="454.23" y="249.03" class="st1" width="15.52" height="31.35"/>
	<rect x="469.79" y="264.76" class="st1" width="15.52" height="15.63"/>
	<rect x="454.23" y="186.5" class="st1" width="15.52" height="15.63"/>
	<rect x="469.79" y="186.5" class="st1" width="15.52" height="15.63"/>
	<rect x="454.23" y="202.19" class="st1" width="15.56" height="15.63"/>
	<rect x="469.79" y="202.24" class="st1" width="15.52" height="15.53"/>
	<rect x="454.23" y="155.38" class="st1" width="15.52" height="15.63"/>
	<rect x="469.79" y="155.38" class="st1" width="15.52" height="15.63"/>
	<rect x="580.42" y="264.97" class="st1" width="15.52" height="15.63"/>
	<rect x="580.42" y="249.12" class="st1" width="15.52" height="15.63"/>
	<rect x="580.42" y="233.44" class="st1" width="15.52" height="15.63"/>
	<rect x="580.42" y="217.82" class="st1" width="15.52" height="15.63"/>
	<rect x="580.42" y="202.24" class="st1" width="15.52" height="15.63"/>
	<rect x="454.23" y="171.07" class="st1" width="15.56" height="15.63"/>
	<rect x="469.79" y="171.11" class="st1" width="15.52" height="15.53"/>
	<rect x="500.53" y="249.31" class="st1" width="15.52" height="15.63"/>
	<rect x="516.09" y="249.31" class="st1" width="15.52" height="15.63"/>
	<rect x="500.53" y="265.01" class="st1" width="15.56" height="15.63"/>
	<rect x="516.09" y="265.05" class="st1" width="15.52" height="15.53"/>
	<rect x="547.13" y="249.31" class="st1" width="15.52" height="15.63"/>
	<rect x="500.53" y="170.94" class="st1" width="15.52" height="15.63"/>
	<rect x="516.09" y="170.94" class="st1" width="15.52" height="15.63"/>
	<rect x="500.53" y="155.36" class="st1" width="15.52" height="15.63"/>
	<rect x="516.09" y="155.36" class="st1" width="15.52" height="15.63"/>
	<rect x="547.13" y="265.05" class="st1" width="15.52" height="15.53"/>
	<rect x="454.23" y="217.82" class="st1" width="15.52" height="15.63"/>
	<rect x="469.79" y="217.82" class="st1" width="15.52" height="15.63"/>
	<rect x="423.03" y="264.8" class="st1" width="15.63" height="15.53"/>
	<rect x="172.79" y="264.58" class="st1" width="15.63" height="15.63"/>
	<rect x="188.46" y="264.58" class="st1" width="15.63" height="15.63"/>
	<rect x="188.46" y="186.64" class="st1" width="15.63" height="15.63"/>
	<rect x="188.46" y="170.94" class="st1" width="15.63" height="15.63"/>
	<rect x="172.79" y="217.96" class="st1" width="15.63" height="15.63"/>
	<rect x="172.79" y="202.27" class="st1" width="15.63" height="15.63"/>
	<rect x="188.46" y="217.96" class="st1" width="15.63" height="15.63"/>
	<rect x="188.46" y="202.27" class="st1" width="15.63" height="15.63"/>
	<rect x="188.46" y="155.39" class="st1" width="15.63" height="15.63"/>
	<rect x="219.78" y="155.39" class="st1" width="15.63" height="15.63"/>
	<rect x="235.45" y="186.64" class="st1" width="15.63" height="15.63"/>
	<rect x="235.45" y="170.94" class="st1" width="15.63" height="15.63"/>
	<rect x="235.45" y="155.39" class="st1" width="15.63" height="15.63"/>
	<rect x="219.38" y="437.08" class="st1" width="61.67" height="30.67"/>
	<rect x="219.38" y="390.23" class="st1" width="61.67" height="30.67"/>
	<rect x="532.7" y="545.76" class="st1" width="31.14" height="31.27"/>
	<polygon class="st1" points="156.95,217.83 125.82,217.83 156.95,186.55 	"/>
	<rect x="580.09" y="624.31" class="st1" width="15.63" height="30.92"/>
	<rect x="580.09" y="608.46" class="st1" width="15.63" height="15.63"/>
	<rect x="580.09" y="655.23" class="st1" width="15.63" height="15.63"/>
	<rect x="580.09" y="592.82" class="st1" width="15.63" height="15.7"/>
	<rect x="580.09" y="561.62" class="st1" width="15.63" height="31.19"/>
	<rect x="580.09" y="546.13" class="st1" width="15.63" height="15.63"/>
	<rect x="580.09" y="530.56" class="st1" width="15.63" height="15.63"/>
	<rect x="580.09" y="515" class="st1" width="15.63" height="15.63"/>
	<rect x="580.09" y="468.29" class="st1" width="15.63" height="15.63"/>
	<rect x="580.09" y="452.66" class="st1" width="15.63" height="15.63"/>
	<rect x="580.09" y="437.09" class="st1" width="15.63" height="15.63"/>
	<rect x="580.09" y="421.52" class="st1" width="15.63" height="15.63"/>
	<rect x="580.09" y="405.95" class="st1" width="15.63" height="15.63"/>
	<rect x="580.09" y="390.4" class="st1" width="15.63" height="15.63"/>
	<rect x="580.09" y="374.82" class="st1" width="15.63" height="15.63"/>
	<rect x="486.25" y="514.31" class="st1" width="15.63" height="15.63"/>
	<rect x="501.91" y="498.91" class="st1" width="15.63" height="15.63"/>
	<rect x="501.91" y="483.36" class="st1" width="15.63" height="15.63"/>
	<rect x="486.25" y="483.37" class="st1" width="15.63" height="31.01"/>
	<rect x="501.91" y="514.31" class="st1" width="15.63" height="15.63"/>
	<rect x="486.25" y="545.76" class="st1" width="15.63" height="15.63"/>
	<rect x="501.91" y="545.76" class="st1" width="15.63" height="15.63"/>
	<rect x="486.25" y="561.39" class="st1" width="31.3" height="15.63"/>
	<rect x="533.17" y="483.36" class="st1" width="15.63" height="15.66"/>
	<rect x="533.17" y="514.75" class="st1" width="15.63" height="15.63"/>
	<rect x="548.84" y="514.75" class="st1" width="15.63" height="15.63"/>
	<rect x="548.84" y="498.91" class="st1" width="15.63" height="15.82"/>
	<rect x="533.31" y="498.91" class="st1" width="15.63" height="15.82"/>
	<rect x="548.84" y="483.36" class="st1" width="15.63" height="15.63"/>
	<rect x="580.11" y="483.88" class="st1" width="15.63" height="31.12"/>
	<rect x="439.32" y="483.61" class="st1" width="15.63" height="31.03"/>
	<rect x="454.99" y="499.01" class="st1" width="15.63" height="15.63"/>
	<rect x="455.03" y="483.64" class="st1" width="15.63" height="15.63"/>
	<rect x="439.32" y="514.64" class="st1" width="15.63" height="15.63"/>
	<rect x="454.99" y="514.64" class="st1" width="15.63" height="15.63"/>
	<rect x="439.33" y="545.87" class="st1" width="31.35" height="31.14"/>
	<rect x="486.28" y="639.66" class="st1" width="31.14" height="31.27"/>
	<rect x="532.7" y="639.66" class="st1" width="31.14" height="31.27"/>
	<rect x="439.33" y="639.77" class="st1" width="31.35" height="31.14"/>
	<rect x="486.28" y="592.74" class="st1" width="31.14" height="31.27"/>
	<rect x="532.7" y="608.55" class="st1" width="31.14" height="15.46"/>
	<rect x="532.7" y="593.17" class="st1" width="31.14" height="15.46"/>
	<rect x="439.33" y="592.86" class="st1" width="31.35" height="31.14"/>
	<path class="st2" d="M196.21,678.61c0,4.99-4.04,9.03-9.03,9.03c-4.99,0-9.03-4.04-9.03-9.03c0-4.99,4.04-9.03,9.03-9.03
		C192.17,669.57,196.21,673.62,196.21,678.61z"/>
	<rect x="360.78" y="342.86" class="st1" width="15.63" height="31.53"/>
	<rect x="376.45" y="342.86" class="st1" width="15.67" height="31.53"/>
	<rect x="360.78" y="296" class="st1" width="15.68" height="15.63"/>
	<rect x="360.78" y="327.31" class="st1" width="15.63" height="15.63"/>
	<rect x="360.78" y="311.61" class="st1" width="15.68" height="15.63"/>
	<rect x="376.51" y="296.01" class="st1" width="15.68" height="31.23"/>
	<rect x="407.33" y="342.86" class="st1" width="15.63" height="31.53"/>
	<rect x="423" y="342.86" class="st1" width="15.68" height="31.53"/>
	<rect x="407.33" y="296" class="st1" width="15.68" height="15.63"/>
	<rect x="407.33" y="327.31" class="st1" width="15.63" height="15.63"/>
	<rect x="407.33" y="311.61" class="st1" width="15.68" height="15.63"/>
	<rect x="422.9" y="296" class="st1" width="15.68" height="15.63"/>
	<rect x="422.9" y="327.31" class="st1" width="15.63" height="15.63"/>
	<rect x="422.9" y="311.61" class="st1" width="15.68" height="15.63"/>
</g>
<g id="numbers" class="st3">
	<text transform="matrix(1 0 0 1 254.4842 668.4131)" class="st4 st5 st6">402</text>
	<text transform="matrix(1 0 0 1 332.1961 669.0864)" class="st4 st5 st6">602</text>
	<text transform="matrix(1 0 0 1 183.4925 419.9551)" class="st4 st5 st6">334</text>
	<text transform="matrix(1 0 0 1 183.5472 591.5596)" class="st4 st5 st6">312</text>
	<text transform="matrix(1 0 0 1 183.5472 654.0562)" class="st4 st5 st6">304</text>
	<text transform="matrix(1 0 0 1 230.3626 591.5596)" class="st4 st5 st6">412</text>
	<text transform="matrix(1 0 0 1 277.3656 591.5596)" class="st4 st5 st6">512</text>
	<text transform="matrix(1 0 0 1 324.659 591.5596)" class="st4 st5 st6">612</text>
	<text transform="matrix(1 0 0 1 86.6625 669.2871)" class="st4 st5 st6">100</text>
	<text transform="matrix(1 0 0 1 81.7787 481.3491)" class="st4 st5 st6">125</text>
	<text transform="matrix(1 0 0 1 81.7787 434.6255)" class="st4 st5 st6">131</text>
	<text transform="matrix(1 0 0 1 81.7787 387.7896)" class="st4 st5 st6">137</text>
	<text transform="matrix(1 0 0 1 183.6082 467.0986)" class="st4 st5 st6">328</text>
	<text transform="matrix(1 0 0 1 136.4271 419.9551)" class="st4 st5 st6">234</text>
	<text transform="matrix(1 0 0 1 136.5433 467.0986)" class="st4 st5 st6">228</text>
	<text transform="matrix(1 0 0 1 183.3724 544.6187)" class="st4 st5 st6">318</text>
	<text transform="matrix(1 0 0 1 229.8333 544.731)" class="st4 st5 st6">418</text>
	<text transform="matrix(1 0 0 1 276.0267 544.731)" class="st4 st5 st6">518</text>
	<text transform="matrix(1 0 0 1 323.8036 545.0483)" class="st4 st5 st6">618</text>
	<text transform="matrix(1 0 0 1 387.4588 544.5078)" class="st4 st5 st6">718</text>
	<text transform="matrix(1 0 0 1 387.4588 513.2788)" class="st4 st5 st6">722</text>
	<text transform="matrix(1 0 0 1 387.4588 591.5605)" class="st4 st5 st6">712</text>
	<text transform="matrix(1 0 0 1 136.6156 373.2925)" class="st4 st5 st6">240</text>
	<text transform="matrix(1 0 0 1 128.8182 326.312)" class="st4 st5 st6">246</text>
	<text transform="matrix(1 0 0 1 144.4886 326.312)" class="st4 st5 st6">345</text>
	<text transform="matrix(1 0 0 1 128.7249 248.1192)" class="st4 st5 st6">256</text>
	<text transform="matrix(1 0 0 1 128.7249 232.688)" class="st4 st5 st6">258</text>
	<text transform="matrix(1 0 0 1 144.5243 232.688)" class="st4 st5 st6">357</text>
	<text transform="matrix(1 0 0 1 144.3929 248.1192)" class="st4 st5 st6">355</text>
	<text transform="matrix(0.6428 -0.766 0.766 0.6428 107.0462 181.5893)" class="st4 st5 st7">261</text>
	<text transform="matrix(0.6428 -0.766 0.766 0.6428 122.5099 163.3883)" class="st4 st5 st7">265</text>
	<text transform="matrix(0.6428 -0.766 0.766 0.6428 62.5339 235.1468)" class="st4 st5 st7">253</text>
	<text transform="matrix(0.6428 -0.766 0.766 0.6428 77.1652 217.3273)" class="st4 st5 st7">255</text>
	<text transform="matrix(1 0 0 1 144.3929 279.1162)" class="st4 st5 st6">351</text>
	<text transform="matrix(1 0 0 1 269.2811 248.1192)" class="st4 st5 st6">556</text>
	<text transform="matrix(1 0 0 1 269.2811 232.688)" class="st4 st5 st6">558</text>
	<text transform="matrix(1 0 0 1 269.2811 216.9736)" class="st4 st5 st6">560</text>
	<text transform="matrix(1 0 0 1 284.993 216.9736)" class="st4 st5 st6">659</text>
	<text transform="matrix(1 0 0 1 284.9515 248.1192)" class="st4 st5 st6">655</text>
	<text transform="matrix(1 0 0 1 284.9515 232.688)" class="st4 st5 st6">657</text>
	<text transform="matrix(1 0 0 1 269.2811 201.2944)" class="st4 st5 st6">562</text>
	<text transform="matrix(1 0 0 1 269.2811 185.8628)" class="st4 st5 st6">564</text>
	<text transform="matrix(1 0 0 1 269.2811 170.1485)" class="st4 st5 st6">566</text>
	<text transform="matrix(1 0 0 1 284.993 170.1485)" class="st4 st5 st6">665</text>
	<text transform="matrix(1 0 0 1 284.9515 201.2944)" class="st4 st5 st6">661</text>
	<text transform="matrix(1 0 0 1 316.5614 201.2944)" class="st4 st5 st6">662</text>
	<text transform="matrix(1 0 0 1 316.5614 170.1485)" class="st4 st5 st6">668</text>
	<text transform="matrix(1 0 0 1 332.2313 201.2944)" class="st4 st5 st6">761</text>
	<text transform="matrix(1 0 0 1 284.9515 185.8628)" class="st4 st5 st6">663</text>
	<text transform="matrix(1 0 0 1 316.6053 248.1192)" class="st4 st5 st6">656</text>
	<text transform="matrix(1 0 0 1 316.6053 216.9736)" class="st4 st5 st6">660</text>
	<text transform="matrix(1 0 0 1 316.6053 185.5923)" class="st4 st5 st6">664</text>
	<text transform="matrix(1 0 0 1 332.2743 248.1192)" class="st4 st5 st6">755</text>
	<text transform="matrix(1 0 0 1 332.2743 232.688)" class="st4 st5 st6">757</text>
	<text transform="matrix(1 0 0 1 332.41 216.9736)" class="st4 st5 st6">759</text>
	<text transform="matrix(1 0 0 1 332.2743 185.5923)" class="st4 st5 st6">763</text>
	<text transform="matrix(1 0 0 1 332.2743 169.9707)" class="st4 st5 st6">765</text>
	<text transform="matrix(1 0 0 1 363.6493 201.2944)" class="st4 st5 st6">762</text>
	<text transform="matrix(1 0 0 1 363.6493 170.1485)" class="st4 st5 st6">766</text>
	<text transform="matrix(1 0 0 1 379.3202 201.2944)" class="st4 st5 st6">861</text>
	<text transform="matrix(1 0 0 1 363.6942 216.9736)" class="st4 st5 st6">760</text>
	<text transform="matrix(1 0 0 1 363.6942 185.5923)" class="st4 st5 st6">764</text>
	<text transform="matrix(1 0 0 1 379.4989 216.9736)" class="st4 st5 st6">859</text>
	<text transform="matrix(1 0 0 1 379.3622 185.5923)" class="st4 st5 st6">863</text>
	<text transform="matrix(1 0 0 1 379.3622 169.9707)" class="st4 st5 st6">865</text>
	<text transform="matrix(1 0 0 1 363.7118 232.7813)" class="st4 st5 st6">758</text>
	<text transform="matrix(1 0 0 1 379.3104 232.7813)" class="st4 st5 st6">857</text>
	<text transform="matrix(1 0 0 1 363.7118 248.2852)" class="st4 st5 st6">756</text>
	<text transform="matrix(1 0 0 1 379.3797 248.1192)" class="st4 st5 st6">855</text>
	<text transform="matrix(1 0 0 1 457.2723 248.1192)" class="st4 st5 st6">956</text>
	<text transform="matrix(1 0 0 1 471.3524 248.1192)" class="st4 st5 st6">1055</text>
	<text transform="matrix(1 0 0 1 410.4041 248.1192)" class="st4 st5 st6">856</text>
	<text transform="matrix(1 0 0 1 410.4041 232.688)" class="st4 st5 st6">858</text>
	<text transform="matrix(1 0 0 1 410.4041 201.3062)" class="st4 st5 st6">862</text>
	<text transform="matrix(1 0 0 1 410.4041 185.5923)" class="st4 st5 st6">864</text>
	<text transform="matrix(1 0 0 1 410.4041 169.9707)" class="st4 st5 st6">866</text>
	<text transform="matrix(1 0 0 1 465.0789 326.0889)" class="st4 st5 st6">946</text>
	<text transform="matrix(1 0 0 1 509.661 232.3535)" class="st4 st5 st6">1058</text>
	<text transform="matrix(1 0 0 1 540.9344 232.3535)" class="st4 st5 st6">1157</text>
	<text transform="matrix(1 0 0 1 449.3866 419.6836)" class="st4 st5 st6">934</text>
	<text transform="matrix(1 0 0 1 502.5272 373.2925)" class="st4 st5 st6">1040</text>
	<text transform="matrix(1 0 0 1 495.1209 419.6836)" class="st4 st5 st6">1034</text>
	<text transform="matrix(1 0 0 1 486.6942 466.5874)" class="st4 st5 st6">1028</text>
	<text transform="matrix(1 0 0 1 503.5321 466.5874)" class="st4 st5 st6">1127</text>
	<text transform="matrix(1 0 0 1 542.3651 420.1357)" class="st4 st5 st6">1134</text>
	<text transform="matrix(1 0 0 1 502.5272 326.0889)" class="st4 st5 st6">1046</text>
	<text transform="matrix(1 0 0 1 426.0731 263.7539)" class="st4 st5 st6">953</text>
	<text transform="matrix(1 0 0 1 471.3504 263.7539)" class="st4 st5 st6">1053</text>
	<text transform="matrix(1 0 0 1 471.3504 279.311)" class="st4 st5 st6">1051</text>
	<text transform="matrix(1 0 0 1 332.3299 279.645)" class="st4 st5 st6">751</text>
	<text transform="matrix(1 0 0 1 284.9632 279.561)" class="st4 st5 st6">651</text>
	<text transform="matrix(1 0 0 1 238.3983 279.1494)" class="st4 st5 st6">551</text>
	<text transform="matrix(1 0 0 1 426.0731 248.2725)" class="st4 st5 st6">955</text>
	<text transform="matrix(1 0 0 1 410.3709 263.8179)" class="st4 st5 st6">854</text>
	<text transform="matrix(1 0 0 1 426.0731 232.688)" class="st4 st5 st6">957</text>
	<text transform="matrix(1 0 0 1 426.0731 201.3062)" class="st4 st5 st6">961</text>
	<text transform="matrix(1 0 0 1 410.4041 216.9116)" class="st4 st5 st6">860</text>
	<text transform="matrix(1 0 0 1 426.0731 216.9116)" class="st4 st5 st6">959</text>
	<text transform="matrix(1 0 0 1 426.0731 185.5923)" class="st4 st5 st6">963</text>
	<text transform="matrix(1 0 0 1 426.0731 169.9707)" class="st4 st5 st6">965</text>
	<text transform="matrix(1 0 0 1 191.7118 373.2871)" class="st4 st5 st6">439</text>
	<text transform="matrix(1 0 0 1 175.9876 373.2925)" class="st4 st5 st6">340</text>
	<text transform="matrix(1 0 0 1 175.9266 342.0283)" class="st4 st5 st6">344</text>
	<text transform="matrix(1 0 0 1 191.5565 342.0283)" class="st4 st5 st6">443</text>
	<text transform="matrix(1 0 0 1 175.9266 326.312)" class="st4 st5 st6">346</text>
	<text transform="matrix(1 0 0 1 191.5956 326.312)" class="st4 st5 st6">445</text>
	<text transform="matrix(1 0 0 1 175.9266 310.7104)" class="st4 st5 st6">348</text>
	<text transform="matrix(1 0 0 1 191.5956 310.7104)" class="st4 st5 st6">447</text>
	<text transform="matrix(1 0 0 1 542.1776 467.291)" class="st4 st5 st6">1128</text>
	<text transform="matrix(1 0 0 1 465.3573 373.2925)" class="st4 st5 st6">940</text>
	<text transform="matrix(1 0 0 1 175.8314 248.1192)" class="st4 st5 st6">356</text>
	<text transform="matrix(1 0 0 1 175.8314 232.688)" class="st4 st5 st6">358</text>
	<text transform="matrix(1 0 0 1 175.8314 201.3062)" class="st4 st5 st6">362</text>
	<text transform="matrix(1 0 0 1 175.8314 185.5923)" class="st4 st5 st6">364</text>
	<text transform="matrix(1 0 0 1 191.4994 248.1192)" class="st4 st5 st6">455</text>
	<text transform="matrix(1 0 0 1 175.8314 263.6362)" class="st4 st5 st6">354</text>
	<text transform="matrix(1 0 0 1 191.4994 263.6362)" class="st4 st5 st6">453</text>
	<text transform="matrix(1 0 0 1 269.3626 263.6362)" class="st4 st5 st6">554</text>
	<text transform="matrix(1 0 0 1 191.4994 232.688)" class="st4 st5 st6">457</text>
	<text transform="matrix(1 0 0 1 222.8197 248.1192)" class="st4 st5 st6">456</text>
	<text transform="matrix(1 0 0 1 222.8197 232.688)" class="st4 st5 st6">458</text>
	<text transform="matrix(1 0 0 1 238.4881 248.1192)" class="st4 st5 st6">555</text>
	<text transform="matrix(1 0 0 1 128.5506 279.5054)" class="st4 st5 st6">252</text>
	<text transform="matrix(1 0 0 1 269.0311 279.5054)" class="st4 st5 st6">552</text>
	<text transform="matrix(1 0 0 1 316.6903 279.5054)" class="st4 st5 st6">652</text>
	<text transform="matrix(1 0 0 1 379.4159 279.645)" class="st4 st5 st6">851</text>
	<text transform="matrix(1 0 0 1 363.7772 279.5054)" class="st4 st5 st6">752</text>
	<text transform="matrix(1 0 0 1 457.2049 279.5054)" class="st4 st5 st6">952</text>
	<text transform="matrix(1 0 0 1 457.2723 201.1841)" class="st4 st5 st6">962</text>
	<text transform="matrix(1 0 0 1 471.3524 201.1841)" class="st4 st5 st6">1061</text>
	<text transform="matrix(1 0 0 1 457.2704 216.8189)" class="st4 st5 st6">960</text>
	<text transform="matrix(1 0 0 1 471.3504 216.8189)" class="st4 st5 st6">1059</text>
	<text transform="matrix(1 0 0 1 457.2723 170.0601)" class="st4 st5 st6">966</text>
	<text transform="matrix(1 0 0 1 471.3524 170.0601)" class="st4 st5 st6">1065</text>
	<text transform="matrix(1 0 0 1 581.9784 279.6582)" class="st4 st5 st6">1251</text>
	<text transform="matrix(1 0 0 1 581.9784 263.8008)" class="st4 st5 st6">1253</text>
	<text transform="matrix(1 0 0 1 581.9784 248.1206)" class="st4 st5 st6">1255</text>
	<text transform="matrix(1 0 0 1 581.9784 232.5044)" class="st4 st5 st6">1257</text>
	<text transform="matrix(1 0 0 1 581.9784 216.9273)" class="st4 st5 st6">1259</text>
	<text transform="matrix(1 0 0 1 457.2704 185.6948)" class="st4 st5 st6">964</text>
	<text transform="matrix(1 0 0 1 471.3504 185.6948)" class="st4 st5 st6">1063</text>
	<text transform="matrix(1 0 0 1 501.9832 263.9961)" class="st4 st5 st6">1054</text>
	<text transform="matrix(1 0 0 1 517.6542 263.9961)" class="st4 st5 st6">1153</text>
	<text transform="matrix(1 0 0 1 501.9823 279.6304)" class="st4 st5 st6">1052</text>
	<text transform="matrix(1 0 0 1 517.6512 279.6304)" class="st4 st5 st6">1151</text>
	<text transform="matrix(1 0 0 1 548.6923 263.9961)" class="st4 st5 st6">1254</text>
	<text transform="matrix(1 0 0 1 501.9832 185.6279)" class="st4 st5 st6">1064</text>
	<text transform="matrix(1 0 0 1 517.6542 185.6279)" class="st4 st5 st6">1163</text>
	<text transform="matrix(1 0 0 1 501.9832 170.0488)" class="st4 st5 st6">1066</text>
	<text transform="matrix(1 0 0 1 517.6542 170.0488)" class="st4 st5 st6">1165</text>
	<text transform="matrix(1 0 0 1 548.6913 279.6304)" class="st4 st5 st6">1252</text>
	<text transform="matrix(1 0 0 1 471.3504 232.376)" class="st4 st5 st6">1057</text>
	<text transform="matrix(1 0 0 1 457.2049 232.5708)" class="st4 st5 st6">958</text>
	<text transform="matrix(1 0 0 1 410.4041 279.3799)" class="st4 st5 st6">852</text>
	<text transform="matrix(1 0 0 1 426.0731 279.3799)" class="st4 st5 st6">951</text>
	<text transform="matrix(1 0 0 1 175.8314 279.2617)" class="st4 st5 st6">352</text>
	<text transform="matrix(1 0 0 1 191.4994 279.2617)" class="st4 st5 st6">451</text>
	<text transform="matrix(1 0 0 1 222.911 279.2617)" class="st4 st5 st6">452</text>
	<text transform="matrix(1 0 0 1 238.4881 232.688)" class="st4 st5 st6">557</text>
	<text transform="matrix(1 0 0 1 222.8197 216.8809)" class="st4 st5 st6">460</text>
	<text transform="matrix(1 0 0 1 222.8197 185.668)" class="st4 st5 st6">464</text>
	<text transform="matrix(1 0 0 1 238.4881 216.8809)" class="st4 st5 st6">559</text>
	<text transform="matrix(1 0 0 1 191.4994 201.3062)" class="st4 st5 st6">461</text>
	<text transform="matrix(1 0 0 1 191.4994 185.5923)" class="st4 st5 st6">463</text>
	<text transform="matrix(1 0 0 1 175.8314 216.9155)" class="st4 st5 st6">360</text>
	<text transform="matrix(1 0 0 1 191.4994 216.9155)" class="st4 st5 st6">459</text>
	<text transform="matrix(1 0 0 1 191.4994 169.9707)" class="st4 st5 st6">465</text>
	<text transform="matrix(1 0 0 1 222.8197 201.3062)" class="st4 st5 st6">462</text>
	<text transform="matrix(1 0 0 1 222.8197 169.9707)" class="st4 st5 st6">466</text>
	<text transform="matrix(1 0 0 1 238.4881 201.3062)" class="st4 st5 st6">561</text>
	<text transform="matrix(1 0 0 1 238.4881 185.5923)" class="st4 st5 st6">563</text>
	<text transform="matrix(1 0 0 1 238.4881 169.9707)" class="st4 st5 st6">565</text>
	<text transform="matrix(1 0 0 1 395.6766 669.2871)" class="st4 st5 st6">802</text>
	<text transform="matrix(1 0 0 1 495.5555 576.1201)" class="st4 st5 st6">1014</text>
	<text transform="matrix(1 0 0 1 542.4764 576.1201)" class="st4 st5 st6">1114</text>
	<text transform="matrix(1 0 0 1 495.5545 670.0254)" class="st4 st5 st6">1002</text>
	<text transform="matrix(1 0 0 1 542.4764 670.0254)" class="st4 st5 st6">1102</text>
	<text transform="matrix(1 0 0 1 495.5545 623.1074)" class="st4 st5 st6">1008</text>
	<text transform="matrix(1 0 0 1 542.4764 623.1074)" class="st4 st5 st6">1108</text>
	<text transform="matrix(1 0 0 1 542.4764 607.7227)" class="st4 st5 st6">1110</text>
	<text transform="matrix(1 0 0 1 245.7977 466.8457)" class="st4 st5 st6">428</text>
	<text transform="matrix(1 0 0 1 245.7977 419.9917)" class="st4 st5 st6">434</text>
	<text transform="matrix(1 0 0 1 317.6004 420)" class="st4 st5 st6">634</text>
	<text transform="matrix(1 0 0 1 317.6004 466.6294)" class="st4 st5 st6">628</text>
	<text transform="matrix(1 0 0 1 388.1268 420)" class="st4 st5 st6">734</text>
	<text transform="matrix(1 0 0 1 388.1268 466.6294)" class="st4 st5 st6">728</text>
	<text transform="matrix(1 0 0 1 442.0506 466.5908)" class="st4 st5 st6">928</text>
	<text transform="matrix(1 0 0 1 455.8622 466.355)" class="st4 st5 st6">1027</text>
	<text transform="matrix(1 0 0 1 580.9589 653.936)" class="st4 st5 st6">1204</text>
	<text transform="matrix(1 0 0 1 580.9589 622.5952)" class="st4 st5 st6">1208</text>
	<text transform="matrix(1 0 0 1 580.9589 669.3618)" class="st4 st5 st6">1202</text>
	<text transform="matrix(1 0 0 1 580.9589 607.2437)" class="st4 st5 st6">1210</text>
	<text transform="matrix(1 0 0 1 580.9589 591.5366)" class="st4 st5 st6">1212</text>
	<text transform="matrix(1 0 0 1 580.9589 560.9482)" class="st4 st5 st6">1216</text>
	<text transform="matrix(1 0 0 1 580.9589 545.0581)" class="st4 st5 st6">1218</text>
	<text transform="matrix(1 0 0 1 580.9589 530.0298)" class="st4 st5 st6">1220</text>
	<text transform="matrix(1 0 0 1 580.9589 513.7769)" class="st4 st5 st6">1222</text>
	<text transform="matrix(1 0 0 1 580.9589 482.7554)" class="st4 st5 st6">1226</text>
	<text transform="matrix(1 0 0 1 580.9589 466.9971)" class="st4 st5 st6">1228</text>
	<text transform="matrix(1 0 0 1 580.9589 451.3276)" class="st4 st5 st6">1230</text>
	<text transform="matrix(1 0 0 1 580.9589 435.6567)" class="st4 st5 st6">1232</text>
	<text transform="matrix(1 0 0 1 580.9589 420.3057)" class="st4 st5 st6">1234</text>
	<text transform="matrix(1 0 0 1 580.9589 404.6348)" class="st4 st5 st6">1236</text>
	<text transform="matrix(1 0 0 1 580.9589 389.2837)" class="st4 st5 st6">1238</text>
	<text transform="matrix(1 0 0 1 534.621 529.5522)" class="st4 st5 st6">1120</text>
	<text transform="matrix(1 0 0 1 534.621 513.2788)" class="st4 st5 st6">1122</text>
	<text transform="matrix(1 0 0 1 534.621 498.0659)" class="st4 st5 st6">1124</text>
	<text transform="matrix(1 0 0 1 550.2899 529.5522)" class="st4 st5 st6">1219</text>
	<text transform="matrix(1 0 0 1 550.2899 513.6987)" class="st4 st5 st6">1221</text>
	<text transform="matrix(1 0 0 1 550.2899 498.0337)" class="st4 st5 st6">1223</text>
	<text transform="matrix(1 0 0 1 259.8465 326.3564)" class="st4 st5 st6">546</text>
	<text transform="matrix(1 0 0 1 317.1043 326.0938)" class="st4 st5 st6">646</text>
	<text transform="matrix(1 0 0 1 260.1937 373.2886)" class="st4 st5 st6">540</text>
	<text transform="matrix(1 0 0 1 316.3753 373.2886)" class="st4 st5 st6">640</text>
	<text transform="matrix(1 0 0 1 363.8778 373.2861)" class="st4 st5 st6">740</text>
	<text transform="matrix(1 0 0 1 379.3426 373.2861)" class="st4 st5 st6">839</text>
	<text transform="matrix(1 0 0 1 363.3631 310.6997)" class="st4 st5 st6">748</text>
	<text transform="matrix(1 0 0 1 363.826 342.0283)" class="st4 st5 st6">744</text>
	<text transform="matrix(1 0 0 1 363.368 326.312)" class="st4 st5 st6">746</text>
	<text transform="matrix(1 0 0 1 379.0995 326.312)" class="st4 st5 st6">845</text>
	<text transform="matrix(1 0 0 1 410.4237 373.2861)" class="st4 st5 st6">840</text>
	<text transform="matrix(1 0 0 1 425.8875 373.2861)" class="st4 st5 st6">939</text>
	<text transform="matrix(1 0 0 1 409.9081 310.6997)" class="st4 st5 st6">848</text>
	<text transform="matrix(1 0 0 1 410.3709 342.0283)" class="st4 st5 st6">844</text>
	<text transform="matrix(1 0 0 1 409.9129 326.312)" class="st4 st5 st6">846</text>
	<text transform="matrix(1 0 0 1 425.4813 310.6997)" class="st4 st5 st6">947</text>
	<text transform="matrix(1 0 0 1 425.9452 342.0283)" class="st4 st5 st6">943</text>
	<text transform="matrix(1 0 0 1 425.4862 326.312)" class="st4 st5 st6">945</text>
	<text transform="matrix(1 0 0 1 487.6991 513.5264)" class="st4 st5 st6">1022</text>
	<text transform="matrix(1 0 0 1 487.6991 528.9937)" class="st4 st5 st6">1020</text>
	<text transform="matrix(1 0 0 1 487.6991 560.4429)" class="st4 st5 st6">1016</text>
	<text transform="matrix(1 0 0 1 503.368 528.9937)" class="st4 st5 st6">1119</text>
	<text transform="matrix(1 0 0 1 503.368 560.4429)" class="st4 st5 st6">1115</text>
	<text transform="matrix(1 0 0 1 503.368 513.6987)" class="st4 st5 st6">1121</text>
	<text transform="matrix(1 0 0 1 503.368 498.0337)" class="st4 st5 st6">1123</text>
	<text transform="matrix(1 0 0 1 456.5702 498.0654)" class="st4 st5 st6">1023</text>
	<text transform="matrix(1 0 0 1 450.4012 576.1685)" class="st4 st5 st6">914</text>
	<text transform="matrix(1 0 0 1 450.4012 670.0728)" class="st4 st5 st6">902</text>
	<text transform="matrix(1 0 0 1 450.4012 623.1553)" class="st4 st5 st6">908</text>
	<text transform="matrix(1 0 0 1 442.368 513.6948)" class="st4 st5 st6">922</text>
	<text transform="matrix(1 0 0 1 456.4461 513.6948)" class="st4 st5 st6">1021</text>
	<text transform="matrix(1 0 0 1 442.368 529.3247)" class="st4 st5 st6">920</text>
	<text transform="matrix(1 0 0 1 456.4461 529.3247)" class="st4 st5 st6">1019</text>
	<text transform="matrix(0.7071 -0.7071 0.7071 0.7071 145.6783 214.5748)" class="st4 st5 st8">260</text>
</g>
<g id="pillars">
	<polygon class="st9" points="94.63,329.74 94.63,330.58 93.35,330.58 93.35,329.74 91.93,329.74 91.93,330.58 91.93,332.98 
		91.93,335.37 91.93,336.21 93.35,336.21 93.35,335.37 94.63,335.37 94.63,336.21 95.98,336.21 95.98,335.37 95.98,332.98 
		95.98,330.58 95.98,329.74 	"/>
	<polygon class="st9" points="94.63,280.89 94.63,281.73 93.35,281.73 93.35,280.89 91.93,280.89 91.93,281.73 91.93,284.12 
		91.93,286.51 91.93,287.35 93.35,287.35 93.35,286.51 94.63,286.51 94.63,287.35 95.98,287.35 95.98,286.51 95.98,284.12 
		95.98,281.73 95.98,280.89 	"/>
	<g id="LINE_200_" class="st10">
		<line class="st11" x1="90.12" y1="330.59" x2="85" y2="330.59"/>
	</g>
	<g id="LINE_199_" class="st10">
		<line class="st11" x1="79.97" y1="330.59" x2="73.57" y2="330.59"/>
	</g>
	<g id="LINE_198_" class="st10">
		<line class="st11" x1="68.54" y1="330.59" x2="62.15" y2="330.59"/>
	</g>
	<g id="LINE_197_" class="st10">
		<line class="st11" x1="57.12" y1="330.59" x2="50.71" y2="330.59"/>
	</g>
	<g id="LINE_196_" class="st10">
		<line class="st11" x1="45.68" y1="330.59" x2="39.28" y2="330.59"/>
	</g>
	<g id="LINE_195_" class="st10">
		<line class="st11" x1="33.8" y1="330.59" x2="27.4" y2="330.59"/>
	</g>
	<g id="LINE_194_" class="st10">
		<line class="st11" x1="23.74" y1="330.59" x2="17.34" y2="330.59"/>
	</g>
	<g id="LINE_192_" class="st10">
		<line class="st11" x1="90.12" y1="335.88" x2="85" y2="335.88"/>
	</g>
	<g id="LINE_191_" class="st10">
		<line class="st11" x1="79.97" y1="335.88" x2="73.57" y2="335.88"/>
	</g>
	<g id="LINE_190_" class="st10">
		<line class="st11" x1="68.54" y1="335.88" x2="62.15" y2="335.88"/>
	</g>
	<g id="LINE_189_" class="st10">
		<line class="st11" x1="57.12" y1="335.88" x2="50.71" y2="335.88"/>
	</g>
	<g id="LINE_188_" class="st10">
		<line class="st11" x1="45.68" y1="335.88" x2="39.28" y2="335.88"/>
	</g>
	<g id="LINE_187_" class="st10">
		<line class="st11" x1="33.8" y1="335.88" x2="27.4" y2="335.88"/>
	</g>
	<g id="LINE_186_" class="st10">
		<line class="st11" x1="23.74" y1="335.88" x2="17.34" y2="335.88"/>
	</g>
	<g id="LINE_184_" class="st10">
		<line class="st11" x1="90.19" y1="286.6" x2="85" y2="286.6"/>
	</g>
	<g id="LINE_183_" class="st10">
		<line class="st11" x1="79.97" y1="286.6" x2="73.57" y2="286.6"/>
	</g>
	<g id="LINE_182_" class="st10">
		<line class="st11" x1="68.54" y1="286.6" x2="62.15" y2="286.6"/>
	</g>
	<g id="LINE_181_" class="st10">
		<line class="st11" x1="57.12" y1="286.6" x2="50.71" y2="286.6"/>
	</g>
	<g id="LINE_180_" class="st10">
		<line class="st11" x1="45.68" y1="286.6" x2="39.28" y2="286.6"/>
	</g>
	<g id="LINE_179_" class="st10">
		<line class="st11" x1="33.8" y1="286.6" x2="27.4" y2="286.6"/>
	</g>
	<g id="LINE_178_" class="st10">
		<line class="st11" x1="23.74" y1="286.6" x2="17.34" y2="286.6"/>
	</g>
	<g id="LINE_176_" class="st10">
		<line class="st11" x1="90.19" y1="281.41" x2="85" y2="281.41"/>
	</g>
	<g id="LINE_175_" class="st10">
		<line class="st11" x1="79.97" y1="281.41" x2="73.57" y2="281.41"/>
	</g>
	<g id="LINE_174_" class="st10">
		<line class="st11" x1="68.54" y1="281.41" x2="62.15" y2="281.41"/>
	</g>
	<g id="LINE_173_" class="st10">
		<line class="st11" x1="57.12" y1="281.41" x2="50.71" y2="281.41"/>
	</g>
	<g id="LINE_172_" class="st10">
		<line class="st11" x1="45.68" y1="281.41" x2="39.28" y2="281.41"/>
	</g>
	<g id="LINE_171_" class="st10">
		<line class="st11" x1="33.8" y1="281.41" x2="27.4" y2="281.41"/>
	</g>
	<g id="LINE_170_" class="st10">
		<line class="st11" x1="23.74" y1="281.41" x2="17.34" y2="281.41"/>
	</g>
	<polygon class="st9" points="232.43,280.89 232.43,281.73 231.14,281.73 231.14,280.89 229.73,280.89 229.73,281.73 229.73,284.12 
		229.73,286.51 229.73,287.35 231.14,287.35 231.14,286.51 232.43,286.51 232.43,287.35 233.78,287.35 233.78,286.51 233.78,284.12 
		233.78,281.73 233.78,280.89 	"/>
	<polygon class="st9" points="232.48,329.69 232.48,330.53 231.2,330.53 231.2,329.69 229.78,329.69 229.78,330.53 229.78,332.92 
		229.78,335.31 229.78,336.16 231.2,336.16 231.2,335.31 232.48,335.31 232.48,336.16 233.83,336.16 233.83,335.31 233.83,332.92 
		233.83,330.53 233.83,329.69 	"/>
	<g id="LINE_165_" class="st10">
		<line class="st11" x1="588.28" y1="335.72" x2="581.66" y2="335.72"/>
	</g>
	<g id="LINE_164_" class="st10">
		<line class="st11" x1="576.47" y1="335.71" x2="569.85" y2="335.71"/>
	</g>
	<g id="LINE_163_" class="st10">
		<line class="st11" x1="564.66" y1="335.71" x2="558.04" y2="335.71"/>
	</g>
	<g id="LINE_162_" class="st10">
		<line class="st11" x1="552.84" y1="335.71" x2="546.23" y2="335.71"/>
	</g>
	<g id="LINE_161_" class="st10">
		<line class="st11" x1="540.56" y1="335.7" x2="534.94" y2="335.7"/>
	</g>
	<g id="LINE_153_" class="st10">
		<line class="st11" x1="588.28" y1="330.38" x2="581.67" y2="330.38"/>
	</g>
	<g id="LINE_152_" class="st10">
		<line class="st11" x1="576.47" y1="330.38" x2="569.85" y2="330.38"/>
	</g>
	<g id="LINE_151_" class="st10">
		<line class="st11" x1="564.66" y1="330.38" x2="558.04" y2="330.37"/>
	</g>
	<g id="LINE_150_" class="st10">
		<line class="st11" x1="552.85" y1="330.37" x2="546.23" y2="330.37"/>
	</g>
	<g id="LINE_149_" class="st10">
		<line class="st11" x1="540.56" y1="330.37" x2="534.94" y2="330.37"/>
	</g>
	<polygon class="st9" points="531.63,280.93 531.63,281.77 530.34,281.77 530.34,280.93 528.92,280.93 528.93,281.77 528.93,284.17 
		528.93,286.56 528.93,287.4 530.34,287.4 530.34,286.56 531.63,286.56 531.63,287.4 532.98,287.4 532.98,286.56 532.98,284.17 
		532.98,281.77 532.98,280.93 	"/>
	<polygon class="st9" points="593.81,329.86 593.81,330.7 592.53,330.7 592.53,329.86 591.12,329.86 591.12,330.7 591.11,333.09 
		591.11,335.49 591.11,336.33 592.53,336.33 592.53,335.49 593.81,335.49 593.81,336.33 595.16,336.33 595.16,335.49 595.17,333.1 
		595.17,330.7 595.17,329.86 	"/>
	<g>
		<polygon class="st9" points="467.43,677.66 467.43,678.5 466.15,678.49 466.15,677.65 464.74,677.65 464.74,678.49 464.74,680.89 
			465.55,680.89 468.79,680.89 468.79,678.5 468.79,677.65 		"/>
		<polygon class="st9" points="465.55,682.62 467.93,682.62 467.93,681.76 467.93,680.89 465.55,680.89 465.55,681.75 		"/>
		<polygon class="st9" points="464.74,685.01 464.74,685.85 466.15,685.85 466.15,685.01 467.43,685.01 467.43,685.85 
			468.78,685.85 468.78,685.01 468.79,682.62 464.74,682.62 		"/>
	</g>
	<g>
		<rect x="330.51" y="680.81" class="st9" width="4.85" height="1.73"/>
		<rect x="339.42" y="680.81" class="st9" width="4.85" height="1.73"/>
	</g>
	<g>
		<polygon class="st9" points="273.91,681.68 273.91,680.81 274.76,680.81 274.76,678.42 274.76,677.58 273.41,677.58 
			273.41,678.42 272.12,678.42 272.12,677.58 270.71,677.58 270.71,678.42 270.71,680.81 271.52,680.81 271.52,681.68 
			271.52,682.55 270.71,682.55 270.71,684.94 270.71,685.78 272.12,685.78 272.12,684.94 273.41,684.94 273.41,685.78 
			274.76,685.78 274.76,684.94 274.76,682.55 273.91,682.55 		"/>
		<rect x="265.85" y="680.81" class="st9" width="4.85" height="1.73"/>
		<rect x="274.76" y="680.81" class="st9" width="4.85" height="1.73"/>
	</g>
	<g>
		<polygon class="st9" points="209.25,681.68 209.25,680.81 210.1,680.81 210.1,678.42 210.1,677.58 208.75,677.58 208.75,678.42 
			207.46,678.42 207.46,677.58 206.05,677.58 206.05,678.42 206.05,680.81 206.86,680.81 206.86,681.68 206.86,682.55 
			206.05,682.55 206.05,684.94 206.05,685.78 207.46,685.78 207.46,684.94 208.75,684.94 208.75,685.78 210.1,685.78 210.1,684.94 
			210.1,682.55 209.25,682.55 		"/>
		<rect x="201.2" y="680.81" class="st9" width="4.85" height="1.73"/>
		<rect x="210.1" y="680.81" class="st9" width="4.85" height="1.73"/>
	</g>
	<g>
		<polygon class="st9" points="144.58,681.68 144.58,680.81 145.44,680.81 145.44,678.42 145.44,677.58 144.09,677.58 
			144.09,678.42 142.8,678.42 142.8,677.58 141.39,677.58 141.39,678.42 141.39,680.81 142.21,680.81 142.21,681.68 142.21,682.55 
			141.39,682.55 141.39,684.94 141.39,685.78 142.8,685.78 142.8,684.94 144.09,684.94 144.09,685.78 145.44,685.78 145.44,684.94 
			145.44,682.55 144.58,682.55 		"/>
		<rect x="136.54" y="680.81" class="st9" width="4.85" height="1.73"/>
		<rect x="145.44" y="680.81" class="st9" width="4.85" height="1.73"/>
	</g>
	<g>
		<polygon class="st9" points="79.93,681.68 79.93,680.81 80.78,680.81 80.78,678.42 80.78,677.58 79.42,677.58 79.42,678.42 
			78.14,678.42 78.14,677.58 76.73,677.58 76.73,678.42 76.73,680.81 77.54,680.81 77.54,681.68 77.54,682.55 76.73,682.55 
			76.73,684.94 76.73,685.78 78.14,685.78 78.14,684.94 79.42,684.94 79.42,685.78 80.78,685.78 80.78,684.94 80.78,682.55 
			79.93,682.55 		"/>
		<rect x="71.88" y="680.81" class="st9" width="4.85" height="1.73"/>
		<rect x="80.78" y="680.81" class="st9" width="4.85" height="1.73"/>
	</g>
	<rect x="16.13" y="680.81" class="st9" width="4.85" height="1.73"/>
	<polygon class="st9" points="385.9,280.88 385.9,281.72 384.62,281.72 384.62,280.88 383.21,280.88 383.21,281.72 383.2,284.11 
		383.2,286.51 383.2,287.35 384.62,287.35 384.62,286.51 385.9,286.51 385.9,287.35 387.26,287.35 387.26,286.51 387.26,284.12 
		387.26,281.72 387.26,280.88 	"/>
	<polygon class="st9" points="385.89,329.72 385.89,330.56 384.61,330.56 384.61,329.72 383.19,329.72 383.19,330.56 383.19,332.95 
		383.19,335.35 383.19,336.18 384.6,336.19 384.61,335.35 385.89,335.35 385.89,336.19 387.24,336.19 387.24,335.35 387.24,332.95 
		387.24,330.56 387.24,329.72 	"/>
	<polygon class="st9" points="531.61,329.82 531.61,330.66 530.33,330.66 530.33,329.82 528.91,329.82 528.91,330.66 528.91,333.05 
		528.91,335.44 528.91,336.28 530.32,336.28 530.33,335.44 531.61,335.44 531.61,336.28 532.96,336.28 532.96,335.44 532.96,333.05 
		532.96,330.66 532.96,329.82 	"/>
	<polygon class="st9" points="593.47,280.9 593.47,281.74 592.19,281.74 592.19,280.9 590.78,280.9 590.78,281.74 590.78,284.13 
		590.78,286.53 590.78,287.37 592.19,287.37 592.19,286.53 593.47,286.53 593.47,287.37 594.83,287.37 594.83,286.53 594.83,284.13 
		594.83,281.74 594.83,280.9 	"/>
	<g id="LINE_15_" class="st10">
		<line class="st11" x1="587.57" y1="287.07" x2="580.96" y2="287.07"/>
	</g>
	<g id="LINE_14_" class="st10">
		<line class="st11" x1="575.76" y1="287.06" x2="569.14" y2="287.06"/>
	</g>
	<g id="LINE_13_" class="st10">
		<line class="st11" x1="563.95" y1="287.06" x2="557.33" y2="287.06"/>
	</g>
	<g id="LINE_12_" class="st10">
		<line class="st11" x1="552.13" y1="287.06" x2="545.52" y2="287.06"/>
	</g>
	<g id="LINE_11_" class="st10">
		<line class="st11" x1="539.85" y1="287.05" x2="534.23" y2="287.05"/>
	</g>
	<g id="LINE_10_" class="st10">
		<line class="st11" x1="587.57" y1="281.73" x2="580.96" y2="281.73"/>
	</g>
	<g id="LINE_9_" class="st10">
		<line class="st11" x1="575.76" y1="281.73" x2="569.15" y2="281.73"/>
	</g>
	<g id="LINE_8_" class="st10">
		<line class="st11" x1="563.95" y1="281.73" x2="557.33" y2="281.72"/>
	</g>
	<g id="LINE_7_" class="st10">
		<line class="st11" x1="552.14" y1="281.72" x2="545.52" y2="281.72"/>
	</g>
	<g id="LINE_6_" class="st10">
		<line class="st11" x1="539.85" y1="281.72" x2="534.23" y2="281.72"/>
	</g>
	<g>
		<polygon class="st9" points="402.86,677.64 402.86,678.48 401.57,678.48 401.57,677.63 400.16,677.63 400.16,678.48 
			400.16,680.87 400.98,680.87 404.21,680.87 404.21,678.48 404.21,677.64 		"/>
		<polygon class="st9" points="400.98,682.6 403.36,682.6 403.36,681.74 403.36,680.87 400.98,680.87 400.98,681.74 		"/>
		<polygon class="st9" points="400.16,684.99 400.16,685.83 401.57,685.83 401.57,684.99 402.86,684.99 402.86,685.83 
			404.21,685.83 404.21,684.99 404.21,682.6 400.16,682.6 		"/>
	</g>
</g>
</svg>
